<svg width="17" height="18" viewBox="0 0 17 18" fill="none" xmlns="http://www.w3.org/2000/svg">
<path d="M7.7 8.54001C8.25229 8.54001 8.7 8.09229 8.7 7.54001C8.7 6.98772 8.25229 6.54001 7.7 6.54001C7.14772 6.54001 6.7 6.98772 6.7 7.54001C6.7 8.09229 7.14772 8.54001 7.7 8.54001Z" stroke="#333333" stroke-width="0.9"/>
<path d="M8.35 13.14C8.90229 13.14 9.35 12.6923 9.35 12.14C9.35 11.5877 8.90229 11.14 8.35 11.14C7.79772 11.14 7.35 11.5877 7.35 12.14C7.35 12.6923 7.79772 13.14 8.35 13.14Z" stroke="#333333" stroke-width="0.9"/>
<path d="M12.3 6.54001C12.8523 6.54001 13.3 6.09229 13.3 5.54001C13.3 4.98772 12.8523 4.54001 12.3 4.54001C11.7477 4.54001 11.3 4.98772 11.3 5.54001C11.3 6.09229 11.7477 6.54001 12.3 6.54001Z" stroke="#333333" stroke-width="0.9"/>
<path d="M16.5 1.39001L13 4.89001M11.05 9.44001L5.05 10.19M15.05 2.84001L16.3 8.29001L8 16.59L1.3 9.89001L9.6 1.59001L15.05 2.84001Z" stroke="#333333" stroke-width="0.9" stroke-linecap="round" stroke-linejoin="round"/>
</svg>
