<svg width="10" height="13" viewBox="0 0 10 13" fill="none" xmlns="http://www.w3.org/2000/svg">
<path d="M5 12.05C3.40073 10.3935 2.15663 8.61137 1.3 6.74999C1.00165 6.12502 0.866458 5.43465 0.907052 4.74331C0.947646 4.05196 1.1627 3.38217 1.53215 2.79641C1.90159 2.21065 2.4134 1.72801 3.01981 1.39354C3.62621 1.05906 4.30747 0.883636 5 0.883636C5.69254 0.883636 6.37379 1.05906 6.9802 1.39354C7.58661 1.72801 8.09841 2.21065 8.46786 2.79641C8.83731 3.38217 9.05236 4.05196 9.09295 4.74331C9.13355 5.43465 8.99836 6.12502 8.7 6.74999C7.84338 8.61137 6.59928 10.3935 5 12.05Z" stroke="white" stroke-width="0.75"/>
</svg>
