<svg width="16" height="15" viewBox="0 0 16 15" fill="none" xmlns="http://www.w3.org/2000/svg">
<path d="M3.23001 3.85988C4.01971 2.68663 5.16191 1.79476 6.49163 1.31308C7.82135 0.8314 9.26976 0.784852 10.6277 1.18016C11.9856 1.57546 13.1827 2.39216 14.0461 3.51228C14.9095 4.63241 15.3945 5.99799 15.4311 7.41179C15.4677 8.82559 15.0539 10.2144 14.2496 11.3777C13.4453 12.541 12.292 13.4185 10.9563 13.8835C9.62069 14.3485 8.17181 14.3769 6.81897 13.9646C5.46612 13.5523 4.27933 12.7207 3.43001 11.5899M6.00001 5.68988H0.600006M6.00001 7.58988H1.20001M6.00001 9.48988H1.80001M8.35001 4.18988V7.58988L10.65 10.3899" stroke="#1928A0" stroke-linecap="round"/>
</svg>
