<svg width="97" height="21" viewBox="0 0 97 21" fill="none" xmlns="http://www.w3.org/2000/svg">
<path d="M4.19679 17.0851V17.1823H2.83976V17.0851C2.83976 16.7911 2.62131 16.6033 2.1156 16.6033C1.65179 16.6033 1.44008 16.7634 1.44008 16.9594C1.44008 17.1831 1.60166 17.2744 2.43803 17.4831C3.8998 17.7973 4.26487 18.1474 4.26487 18.9232C4.26487 19.9084 3.42177 20.4395 2.12159 20.4395C0.60371 20.4395 0 19.7962 0 18.8805V18.7406H1.36976V18.8035C1.36976 19.1955 1.65179 19.4139 2.16423 19.4139C2.67742 19.4139 2.89511 19.2665 2.89511 19.0369C2.89511 18.8064 2.73427 18.7152 1.89791 18.4982C0.435389 18.1975 0.0710687 17.7853 0.0710687 17.0589C0.0710687 16.1926 0.886488 15.5769 2.15076 15.5769C3.57812 15.5747 4.19679 16.1964 4.19679 17.0851ZM7.81606 15.6794C8.9973 15.6794 9.60849 16.2801 9.60849 17.1404V17.4479C9.60849 18.315 8.98982 18.9157 7.82354 18.9157H6.9378V20.3341H5.55383V15.6787L7.81606 15.6794ZM6.93107 17.8885H7.54899C7.98737 17.8885 8.23125 17.7202 8.23125 17.3783V17.2108C8.23125 16.8681 7.98588 16.7081 7.54899 16.7081H6.93107V17.8885ZM15.3793 17.7068V18.3075C15.332 18.8898 15.0664 19.4328 14.6357 19.8276C14.2039 20.2242 13.639 20.4443 13.0527 20.4443C12.4664 20.4443 11.9015 20.2242 11.4697 19.8276C11.0393 19.4327 10.7739 18.8897 10.7269 18.3075V17.7068C10.7739 17.1245 11.0393 16.5815 11.4697 16.1866C11.9015 15.79 12.4664 15.57 13.0527 15.57C13.639 15.57 14.2039 15.79 14.6357 16.1866C15.0666 16.5831 15.3321 17.1255 15.3793 17.7068ZM12.1109 17.7419V18.2656C12.1109 19.0062 12.4976 19.3354 13.0527 19.3354C13.607 19.3354 13.9871 19.0062 13.9871 18.2656V17.7419C13.9871 17.0073 13.6145 16.6721 13.052 16.6721C12.4909 16.6721 12.1109 17.0073 12.1109 17.7419ZM18.1487 20.3348H16.7647V15.6794H19.2948C20.3062 15.6794 20.9458 16.2106 20.9458 17.0911V17.3529C20.9607 17.6353 20.8832 17.9149 20.7252 18.1495C20.5672 18.384 20.3371 18.5608 20.0698 18.6531L21.1216 20.3303H19.618L18.6903 18.7855H18.1487V20.3348ZM18.142 17.8182H18.8661C19.3576 17.8182 19.5484 17.6237 19.5484 17.329V17.1966C19.5484 16.8958 19.3584 16.7073 18.8736 16.7073H18.1427L18.142 17.8182ZM26.3022 15.6794V16.8472H24.8411V20.3348H23.4639V16.8472H21.9976V15.6802L26.3022 15.6794ZM31.4326 17.0851V17.1823H30.077V17.0851C30.077 16.7918 29.8586 16.6033 29.3529 16.6033C28.8891 16.6033 28.6781 16.7634 28.6781 16.9602C28.6781 17.1831 28.8389 17.2744 29.6753 17.4831C31.1363 17.7973 31.5021 18.1474 31.5021 18.9232C31.5021 19.9084 30.659 20.4395 29.3589 20.4395C27.8402 20.4395 27.2365 19.7969 27.2365 18.8805V18.7414H28.607V18.8042C28.607 19.1955 28.8883 19.4146 29.4007 19.4146C29.9139 19.4146 30.1316 19.2673 30.1316 19.0369C30.1316 18.8064 29.9708 18.7152 29.1344 18.4982C27.6734 18.1982 27.3076 17.7853 27.3076 17.0589C27.3076 16.1926 28.123 15.5769 29.3873 15.5769C30.8139 15.5754 31.4326 16.1971 31.4326 17.0851ZM35.1154 16.2487V17.5399H36.4747V18.4676H35.1154V19.7588H34.119V18.4683H32.7589V17.5407H34.119V16.2502H35.1154V16.2487ZM42.5223 17.7068V18.3075C42.4752 18.8897 42.2099 19.4327 41.7794 19.8276C41.3476 20.2242 40.7827 20.4443 40.1965 20.4443C39.6102 20.4443 39.0453 20.2242 38.6135 19.8276C38.183 19.4327 37.9177 18.8897 37.8706 18.3075V17.7068C37.9177 17.1245 38.183 16.5815 38.6135 16.1866C39.0453 15.79 39.6102 15.57 40.1965 15.57C40.7827 15.57 41.3476 15.79 41.7794 16.1866C42.2103 16.5831 42.4751 17.1255 42.5223 17.7068ZM39.2546 17.7419V18.2656C39.2546 19.0062 39.6414 19.3354 40.1957 19.3354C40.7508 19.3354 41.1308 19.0062 41.1308 18.2656V17.7419C41.1308 17.0073 40.7583 16.6721 40.1957 16.6721C39.6346 16.6721 39.2546 17.0073 39.2546 17.7419ZM45.2221 15.6794V18.4272C45.2221 19.0002 45.484 19.3219 46.051 19.3219C46.5986 19.3219 46.8732 19.0002 46.8732 18.4272V15.6794H48.1943V18.3785C48.2283 18.6655 48.1951 18.9563 48.0974 19.2282C47.9996 19.5001 47.8399 19.7455 47.631 19.945C47.4218 20.1458 47.1692 20.2956 46.8927 20.3828C46.6162 20.4699 46.3233 20.4922 46.0368 20.4478C44.5257 20.4478 43.8374 19.7274 43.8374 18.3785V15.6794H45.2221ZM53.7474 15.6794V16.8472H52.2856V20.3348H50.9114V16.8472H49.4429V15.6802L53.7474 15.6794ZM57.2058 15.6794C57.4904 15.6389 57.7805 15.662 58.0551 15.7469C58.3297 15.8319 58.5821 15.9767 58.794 16.1709C59.0049 16.3648 59.1698 16.6032 59.2767 16.869C59.3836 17.1347 59.4298 17.4209 59.4119 17.7068V18.3643C59.4119 19.5665 58.696 20.3355 57.2051 20.3355H55.0386V15.6802L57.2058 15.6794ZM56.4256 19.2374H57.1138C57.7198 19.2374 58.028 18.8184 58.028 18.2102V17.7973C58.028 17.1966 57.7183 16.7776 57.1145 16.7776H56.4256V19.2374ZM65.2882 17.7068V18.3075C65.2411 18.8897 64.9758 19.4327 64.5453 19.8276C64.1136 20.2242 63.5487 20.4443 62.9624 20.4443C62.3761 20.4443 61.8112 20.2242 61.3794 19.8276C60.949 19.4327 60.6836 18.8897 60.6366 18.3075V17.7068C60.6836 17.1245 60.949 16.5815 61.3794 16.1866C61.8112 15.79 62.3761 15.57 62.9624 15.57C63.5487 15.57 64.1136 15.79 64.5453 16.1866C64.9762 16.5831 65.2411 17.1255 65.2882 17.7068ZM62.0205 17.7419V18.2656C62.0205 19.0062 62.4073 19.3354 62.9616 19.3354C63.5167 19.3354 63.8967 19.0062 63.8967 18.2656V17.7419C63.8967 17.0073 63.5242 16.6721 62.9616 16.6721C62.4006 16.6721 62.0205 17.0073 62.0205 17.7419ZM71.157 17.7068V18.3075C71.1099 18.8897 70.8446 19.4327 70.4141 19.8276C69.9823 20.2242 69.4174 20.4443 68.8312 20.4443C68.2449 20.4443 67.68 20.2242 67.2482 19.8276C66.8177 19.4327 66.5524 18.8897 66.5053 18.3075V17.7068C66.5524 17.1245 66.8177 16.5815 67.2482 16.1866C67.68 15.79 68.2449 15.57 68.8312 15.57C69.4174 15.57 69.9823 15.79 70.4141 16.1866C70.845 16.5831 71.1098 17.1255 71.157 17.7068ZM67.8893 17.7419V18.2656C67.8893 19.0062 68.2761 19.3354 68.8304 19.3354C69.3855 19.3354 69.7655 19.0062 69.7655 18.2656V17.7419C69.7655 17.0073 69.393 16.6721 68.8304 16.6721C68.2693 16.6721 67.8893 17.0073 67.8893 17.7419ZM73.9286 20.3348H72.5447V15.6794H75.074C76.0854 15.6794 76.7258 16.2106 76.7258 17.0911V17.3529C76.7403 17.6354 76.6627 17.9149 76.5045 18.1494C76.3464 18.3839 76.1163 18.5607 75.849 18.6531L76.9008 20.3303H75.3964L74.4688 18.7855H73.9286V20.3348ZM73.9212 17.8182H74.6453C75.1368 17.8182 75.3276 17.6237 75.3276 17.329V17.1966C75.3276 16.8958 75.1368 16.7073 74.6521 16.7073H73.9212V17.8182ZM82.0664 17.0851V17.1823H80.7101V17.0851C80.7101 16.7918 80.4917 16.6033 79.9859 16.6033C79.5221 16.6033 79.3112 16.7634 79.3112 16.9602C79.3112 17.1831 79.4728 17.2744 80.3099 17.4831C81.7716 17.7973 82.1367 18.1474 82.1367 18.9232C82.1367 19.9084 81.2929 20.4395 79.9934 20.4395C78.4748 20.4395 77.8711 19.7969 77.8711 18.8805V18.7414H79.2409V18.8042C79.2409 19.1955 79.5221 19.4146 80.0353 19.4146C80.5478 19.4146 80.7655 19.2673 80.7655 19.0369C80.7655 18.8064 80.6039 18.7152 79.7675 18.4982C78.3057 18.1982 77.9414 17.7853 77.9414 17.0589C77.9414 16.1926 78.7561 15.5769 80.0211 15.5769C81.4455 15.5754 82.0664 16.1971 82.0664 17.0851ZM20.5822 10.4473C18.5871 10.4473 18.5661 8.36534 18.5661 6.90207C18.5661 5.36549 18.8025 3.47581 20.7259 3.47581C20.9428 3.44615 21.1636 3.46325 21.3734 3.52595C21.5832 3.58866 21.7772 3.69553 21.9423 3.83938C22.1064 3.98288 22.2378 4.16005 22.3274 4.35885C22.417 4.55764 22.4627 4.7734 22.4614 4.99144H25.8136C25.5817 2.65515 23.4123 0.829061 20.6069 0.829061C16.8059 0.829061 14.5728 3.49975 14.5728 7.18784C14.5728 10.7315 16.7348 13.3065 20.3937 13.3065C23.339 13.3065 25.596 11.5357 25.8802 8.55685L22.4614 8.59575C22.3403 9.70592 21.8173 10.4473 20.5822 10.4473ZM38.2035 5.67445C38.2035 4.23288 38.3217 2.9095 37.0866 1.91828C35.9597 1.15763 34.6195 0.776081 33.2609 0.829061C30.7189 0.829061 27.9083 1.735 27.5634 4.95404L30.7997 4.99294C30.8068 4.73081 30.8681 4.47299 30.9797 4.23571C31.0914 3.99843 31.2509 3.78683 31.4483 3.61421C31.6459 3.44077 31.877 3.30972 32.1272 3.22917C32.3775 3.14862 32.6416 3.12028 32.9033 3.1459C33.1678 3.13096 33.4324 3.17397 33.6785 3.27191C33.9247 3.36986 34.1465 3.52038 34.3284 3.71295C34.6067 4.19173 34.7152 4.74906 34.6374 5.29666V5.57944C33.0208 5.64004 31.4169 5.89364 29.8616 6.33651C29.0852 6.56109 28.4018 7.02987 27.9128 7.67335C27.4253 8.3153 27.1591 9.09807 27.1542 9.90416C27.1542 12.1709 28.8195 13.305 30.9545 13.305C31.7276 13.3381 32.495 13.1596 33.1741 12.7888C33.852 12.4191 34.4156 11.8705 34.8035 11.2028C34.7807 11.8245 34.7785 12.4468 34.7967 13.0686H38.2148C38.2222 12.4993 38.2058 11.8866 38.2058 11.2724L38.2035 5.67445ZM34.1638 10.1159C33.9781 10.4161 33.7196 10.6646 33.4123 10.8384C33.105 11.0122 32.7588 11.1056 32.4058 11.1101C32.1959 11.1227 31.9857 11.09 31.7895 11.0142C31.5933 10.9384 31.4157 10.8214 31.2687 10.671C31.1224 10.5208 31.0103 10.3408 30.9401 10.1432C30.87 9.94561 30.8435 9.73518 30.8625 9.52637C30.8625 7.77659 33.3103 7.47137 34.6404 7.32848V7.80277C34.734 8.60497 34.5669 9.41599 34.1638 10.1159ZM58.0631 10.8243C57.7345 10.826 57.4091 10.7584 57.1083 10.626C56.8075 10.4937 56.5379 10.2995 56.3171 10.056C56.0975 9.81319 55.9319 9.52652 55.8313 9.21496C55.7308 8.90339 55.6974 8.57403 55.7336 8.24863L55.759 7.65914H63.504C63.6128 5.99908 63.1796 4.34858 62.2696 2.95588C61.7482 2.28441 61.078 1.74306 60.3119 1.37442C59.5445 1.00518 58.7022 0.818278 57.8507 0.828313C54.0967 0.828313 51.9782 3.68827 51.9782 7.23198C51.9782 10.8011 54.3309 13.3057 57.9389 13.3057C59.2445 13.3686 60.5288 12.9582 61.556 12.1499C62.58 11.3445 63.2766 10.1944 63.516 8.91369H60.2393C60.1901 9.44891 59.9373 9.94482 59.5331 10.2992C59.1277 10.6547 58.6021 10.8425 58.0631 10.8243ZM57.9921 3.09802C59.5122 3.09802 59.9408 4.30395 60.0082 5.60189H55.7381C55.8533 4.23288 56.4465 3.09802 57.9921 3.09802ZM88.4342 8.20225L86.1285 1.06546H82.7008L87.0958 13.0701C86.7869 14.2034 86.3365 15.6914 85.168 15.6914L83.4399 15.6839L83.4032 18.1863L85.1216 18.1781C88.5396 18.1781 89.0184 15.0323 89.9199 12.313L93.6012 1.06546H90.7241L88.4342 8.20225ZM96.8951 2.37312C96.8951 2.02451 96.6946 1.85021 96.2958 1.85021H95.4767V3.42045H95.8822V2.90277H96.1814L96.4739 3.42045H96.9235L96.5958 2.85265C96.6895 2.8141 96.7687 2.74719 96.8223 2.66132C96.876 2.57545 96.9014 2.47418 96.8951 2.37312ZM96.2098 2.58633H95.8822V2.17488H96.2098C96.4021 2.17563 96.4731 2.23248 96.4731 2.38135C96.4731 2.53097 96.3961 2.58633 96.2098 2.58633Z" fill="white"/>
</svg>
